<svg width="22" height="17" viewBox="0 0 22 17" fill="none" xmlns="http://www.w3.org/2000/svg">
<path d="M21.4014 4.7828V14.0742C21.4014 15.6806 20.0997 16.9823 18.4934 16.9823H3.26061C2.48934 16.9823 1.74966 16.6759 1.20429 16.1305C0.658924 15.5852 0.352539 14.8455 0.352539 14.0742V4.7828L10.5435 10.3884C10.7512 10.5026 11.0033 10.5026 11.2104 10.3884L21.4014 4.78224V4.7828ZM18.4934 0.364746C19.2525 0.364817 19.9815 0.661731 20.5247 1.19206C21.0678 1.7224 21.3821 2.44411 21.4003 3.20302L10.877 8.99147L0.353647 3.20247L0.354755 3.15262C0.385776 2.40275 0.705499 1.69392 1.24707 1.17434C1.78863 0.654762 2.5101 0.364677 3.26061 0.364746H18.4934Z" fill="white"/>
</svg>
