<svg width="27" height="28" viewBox="0 0 27 28" fill="none" xmlns="http://www.w3.org/2000/svg">
<path d="M13.5183 9.42027C11.145 9.42027 9.2082 11.4005 9.2082 13.8271C9.2082 16.2536 11.145 18.2339 13.5183 18.2339C15.8916 18.2339 17.8285 16.2536 17.8285 13.8271C17.8285 11.4005 15.8916 9.42027 13.5183 9.42027ZM26.4455 13.8271C26.4455 12.0022 26.4617 10.1939 26.3614 8.37229C26.2612 6.2565 25.7891 4.37873 24.2759 2.83156C22.7594 1.28108 20.9261 0.801726 18.8567 0.699242C17.0718 0.596758 15.3032 0.613288 13.5216 0.613288C11.7367 0.613288 9.96805 0.596758 8.18644 0.699242C6.11706 0.801726 4.28049 1.28439 2.76726 2.83156C1.25079 4.38204 0.781945 6.2565 0.68171 8.37229C0.581474 10.1972 0.597641 12.0055 0.597641 13.8271C0.597641 15.6486 0.581474 17.4603 0.68171 19.2818C0.781945 21.3976 1.25402 23.2754 2.76726 24.8226C4.28372 26.373 6.11706 26.8524 8.18644 26.9549C9.97128 27.0574 11.74 27.0408 13.5216 27.0408C15.3064 27.0408 17.0751 27.0574 18.8567 26.9549C20.9261 26.8524 22.7626 26.3697 24.2759 24.8226C25.7923 23.2721 26.2612 21.3976 26.3614 19.2818C26.4649 17.4603 26.4455 15.6519 26.4455 13.8271ZM13.5183 20.6075C9.84841 20.6075 6.88661 17.5793 6.88661 13.8271C6.88661 10.0748 9.84841 7.04661 13.5183 7.04661C17.1882 7.04661 20.15 10.0748 20.15 13.8271C20.15 17.5793 17.1882 20.6075 13.5183 20.6075ZM20.4216 8.35245C19.5648 8.35245 18.8728 7.64499 18.8728 6.76892C18.8728 5.89285 19.5648 5.18538 20.4216 5.18538C21.2785 5.18538 21.9705 5.89285 21.9705 6.76892C21.9707 6.97694 21.9308 7.18298 21.8531 7.37522C21.7753 7.56746 21.6613 7.74213 21.5174 7.88923C21.3735 8.03633 21.2027 8.15296 21.0147 8.23245C20.8266 8.31193 20.6251 8.35272 20.4216 8.35245Z" fill="white"/>
</svg>
