<svg width="23" height="29" viewBox="0 0 23 29" fill="none" xmlns="http://www.w3.org/2000/svg">
<path d="M11.3486 0.675781C8.43232 0.679222 5.63642 1.83925 3.57427 3.90141C1.51211 5.96356 0.352085 8.75946 0.348645 11.6758C0.345152 14.059 1.12363 16.3776 2.56464 18.2758C2.56464 18.2758 2.86464 18.6708 2.91364 18.7278L11.3486 28.6758L19.7876 18.7228C19.8316 18.6698 20.1326 18.2758 20.1326 18.2758L20.1336 18.2728C21.5739 16.3754 22.3521 14.0579 22.3486 11.6758C22.3452 8.75946 21.1852 5.96356 19.123 3.90141C17.0609 1.83925 14.265 0.679222 11.3486 0.675781ZM11.3486 15.6758C10.5575 15.6758 9.78416 15.4412 9.12636 15.0017C8.46857 14.5621 7.95588 13.9374 7.65313 13.2065C7.35038 12.4756 7.27116 11.6713 7.4255 10.8954C7.57984 10.1195 7.96081 9.40676 8.52022 8.84735C9.07963 8.28794 9.79236 7.90698 10.5683 7.75264C11.3442 7.5983 12.1485 7.67751 12.8794 7.98026C13.6103 8.28301 14.235 8.7957 14.6745 9.4535C15.114 10.1113 15.3486 10.8847 15.3486 11.6758C15.3473 12.7362 14.9255 13.7529 14.1756 14.5027C13.4258 15.2526 12.4091 15.6745 11.3486 15.6758Z" fill="white"/>
</svg>
