<svg width="27" height="27" viewBox="0 0 27 27" fill="none" xmlns="http://www.w3.org/2000/svg">
<path d="M18.1482 19.0994L20.3882 16.8594C20.6899 16.5615 21.0717 16.3575 21.487 16.2723C21.9024 16.1871 22.3336 16.2243 22.7282 16.3794L25.4582 17.4694C25.8571 17.6313 26.199 17.9076 26.441 18.2635C26.6831 18.6194 26.8143 19.039 26.8182 19.4694V24.4694C26.8159 24.7622 26.7544 25.0515 26.6373 25.3199C26.5203 25.5882 26.3501 25.8301 26.1371 26.031C25.9241 26.2319 25.6726 26.3875 25.3978 26.4887C25.1231 26.5898 24.8307 26.6343 24.5382 26.6194C5.40825 25.4294 1.54825 9.22943 0.818249 3.02943C0.784362 2.72496 0.815324 2.41677 0.909097 2.12514C1.00287 1.8335 1.15733 1.56502 1.36232 1.33736C1.5673 1.10971 1.81817 0.92803 2.09841 0.804289C2.37865 0.680548 2.68191 0.617546 2.98825 0.619426H7.81825C8.24926 0.620701 8.67003 0.750893 9.02644 0.993255C9.38286 1.23562 9.65862 1.57907 9.81825 1.97943L10.9082 4.70943C11.0685 5.10249 11.1094 5.53407 11.0258 5.95024C10.9422 6.36641 10.7378 6.74872 10.4382 7.04943L8.19825 9.28943C8.19825 9.28943 9.48825 18.0194 18.1482 19.0994Z" fill="white"/>
</svg>
