<svg width="27" height="28" viewBox="0 0 27 28" fill="none" xmlns="http://www.w3.org/2000/svg">
<path d="M24.4609 6.72398C20.5941 0.612103 12.6992 -1.20494 6.57662 2.59433C0.615181 6.3936 -1.31826 14.6529 2.54862 20.7648L2.87086 21.2603L1.5819 26.2159L6.4155 24.8944L6.89886 25.2248C8.99342 26.3811 11.2491 27.0418 13.5048 27.0418C15.9216 27.0418 18.3384 26.3811 20.4329 25.0596C26.3944 21.0951 28.1667 13.001 24.4609 6.72398ZM21.0774 19.4433C20.4329 20.4344 19.6273 21.0951 18.4995 21.2603C17.855 21.2603 17.0494 21.5907 13.827 20.2692C11.088 18.9477 8.8323 16.8003 7.2211 14.3225C6.25438 13.1662 5.77102 11.6795 5.6099 10.1929C5.6099 8.87139 6.09326 7.71509 6.89886 6.88916C7.2211 6.55879 7.54334 6.3936 7.86558 6.3936H8.67118C8.99342 6.3936 9.31566 6.3936 9.47678 7.05435C9.79902 7.88028 10.6046 9.8625 10.6046 10.0277C10.7657 10.1929 10.7657 10.5232 10.6046 10.6884C10.7657 11.0188 10.6046 11.3492 10.4435 11.5144C10.2824 11.6796 10.1213 12.0099 9.96014 12.1751C9.6379 12.3403 9.47678 12.6707 9.6379 13.001C10.2824 13.9921 11.088 14.9833 11.8936 15.8092C12.8603 16.6351 13.827 17.2959 14.9549 17.7914C15.2771 17.9566 15.5993 17.9566 15.7605 17.6262C15.9216 17.2959 16.7272 16.4699 17.0494 16.1396C17.3717 15.8092 17.5328 15.8092 17.855 15.9744L20.4329 17.2959C20.7552 17.4611 21.0774 17.6262 21.2385 17.7914C21.3997 18.287 21.3997 18.9477 21.0774 19.4433Z" fill="white"/>
</svg>
